<svg xmlns="http://www.w3.org/2000/svg" version="1.1" xmlns:xlink="http://www.w3.org/1999/xlink" width="1000" height="1000"><style>
    #light-icon {
      display: inline;
    }
    #dark-icon {
      display: none;
    }

    @media (prefers-color-scheme: dark) {
      #light-icon {
        display: none;
      }
      #dark-icon {
        display: inline;
      }
    }
  </style><g id="light-icon"><svg xmlns="http://www.w3.org/2000/svg" version="1.1" xmlns:xlink="http://www.w3.org/1999/xlink" width="1000" height="1000"><g><g transform="matrix(20,0,0,20,0,0)"><svg xmlns="http://www.w3.org/2000/svg" version="1.1" xmlns:xlink="http://www.w3.org/1999/xlink" width="50" height="50"><svg width="50" height="50" viewBox="0 0 50 50" fill="none" xmlns="http://www.w3.org/2000/svg">
<path d="M38.7838 4.48312L16.6907 2.16104C10.5899 1.51982 5.12434 5.94571 4.48312 12.0466L2.16104 34.1397C1.51981 40.2405 5.94571 45.706 12.0466 46.3473L34.1397 48.6693C40.2405 49.3106 45.706 44.8847 46.3473 38.7838L48.6693 16.6907C49.3106 10.5899 44.8847 5.12434 38.7838 4.48312Z" fill="#7C3AED"></path>
<path d="M17.8624 26.4781C17.6882 26.4593 17.5229 26.3917 17.3854 26.283C17.248 26.1743 17.1441 26.029 17.0856 25.8639C17.0271 25.6987 17.0164 25.5204 17.0548 25.3495C17.0932 25.1785 17.1791 25.0219 17.3026 24.8976L27.4029 16.4659C27.4786 16.3904 27.5784 16.3437 27.6849 16.3341C27.7915 16.3244 27.898 16.3523 27.9861 16.4129C28.0742 16.4736 28.1383 16.5631 28.1674 16.6661C28.1964 16.7691 28.1884 16.8789 28.1449 16.9766L25.7955 22.328C25.7268 22.4629 25.692 22.6126 25.6943 22.764C25.6965 22.9154 25.7357 23.064 25.8084 23.1968C25.8811 23.3297 25.9852 23.4427 26.1115 23.5262C26.2379 23.6097 26.3827 23.6611 26.5334 23.6759L32.968 24.3523C33.1422 24.3711 33.3075 24.4387 33.445 24.5474C33.5824 24.6561 33.6863 24.8014 33.7448 24.9665C33.8033 25.1317 33.814 25.31 33.7756 25.4809C33.7372 25.6519 33.6513 25.8085 33.5278 25.9328L23.4275 34.3645C23.3518 34.44 23.252 34.4867 23.1455 34.4963C23.0389 34.506 22.9324 34.4781 22.8443 34.4175C22.7562 34.3568 22.692 34.2672 22.663 34.1643C22.634 34.0613 22.642 33.9515 22.6855 33.8537L25.0349 28.5024C25.1036 28.3675 25.1384 28.2178 25.1361 28.0664C25.1338 27.915 25.0947 27.7664 25.022 27.6336C24.9492 27.5007 24.8452 27.3877 24.7189 27.3042C24.5925 27.2207 24.4477 27.1693 24.297 27.1545L17.8624 26.4781Z" stroke="#F8FAFC" stroke-width="1.33" stroke-linecap="round" stroke-linejoin="round"></path>
<path d="M40.6879 49.0184C45.2887 49.0184 49.0184 45.2887 49.0184 40.6879C49.0184 36.087 45.2887 32.3573 40.6879 32.3573C36.087 32.3573 32.3573 36.087 32.3573 40.6879C32.3573 45.2887 36.087 49.0184 40.6879 49.0184Z" fill="#EF4444"></path>
</svg></svg></g></g></svg></g><g id="dark-icon"><svg xmlns="http://www.w3.org/2000/svg" version="1.1" xmlns:xlink="http://www.w3.org/1999/xlink" width="1000" height="1000"><g clip-path="url(#SvgjsClipPath1034)"><rect width="1000" height="1000" fill="#ffffff"></rect><g transform="matrix(16,0,0,16,100,100)"><svg xmlns="http://www.w3.org/2000/svg" version="1.1" xmlns:xlink="http://www.w3.org/1999/xlink" width="50" height="50"><svg width="50" height="50" viewBox="0 0 50 50" fill="none" xmlns="http://www.w3.org/2000/svg">
<path d="M38.7838 4.48312L16.6907 2.16104C10.5899 1.51982 5.12434 5.94571 4.48312 12.0466L2.16104 34.1397C1.51981 40.2405 5.94571 45.706 12.0466 46.3473L34.1397 48.6693C40.2405 49.3106 45.706 44.8847 46.3473 38.7838L48.6693 16.6907C49.3106 10.5899 44.8847 5.12434 38.7838 4.48312Z" fill="#7C3AED"></path>
<path d="M17.8624 26.4781C17.6882 26.4593 17.5229 26.3917 17.3854 26.283C17.248 26.1743 17.1441 26.029 17.0856 25.8639C17.0271 25.6987 17.0164 25.5204 17.0548 25.3495C17.0932 25.1785 17.1791 25.0219 17.3026 24.8976L27.4029 16.4659C27.4786 16.3904 27.5784 16.3437 27.6849 16.3341C27.7915 16.3244 27.898 16.3523 27.9861 16.4129C28.0742 16.4736 28.1383 16.5631 28.1674 16.6661C28.1964 16.7691 28.1884 16.8789 28.1449 16.9766L25.7955 22.328C25.7268 22.4629 25.692 22.6126 25.6943 22.764C25.6965 22.9154 25.7357 23.064 25.8084 23.1968C25.8811 23.3297 25.9852 23.4427 26.1115 23.5262C26.2379 23.6097 26.3827 23.6611 26.5334 23.6759L32.968 24.3523C33.1422 24.3711 33.3075 24.4387 33.445 24.5474C33.5824 24.6561 33.6863 24.8014 33.7448 24.9665C33.8033 25.1317 33.814 25.31 33.7756 25.4809C33.7372 25.6519 33.6513 25.8085 33.5278 25.9328L23.4275 34.3645C23.3518 34.44 23.252 34.4867 23.1455 34.4963C23.0389 34.506 22.9324 34.4781 22.8443 34.4175C22.7562 34.3568 22.692 34.2672 22.663 34.1643C22.634 34.0613 22.642 33.9515 22.6855 33.8537L25.0349 28.5024C25.1036 28.3675 25.1384 28.2178 25.1361 28.0664C25.1338 27.915 25.0947 27.7664 25.022 27.6336C24.9492 27.5007 24.8452 27.3877 24.7189 27.3042C24.5925 27.2207 24.4477 27.1693 24.297 27.1545L17.8624 26.4781Z" stroke="#F8FAFC" stroke-width="1.33" stroke-linecap="round" stroke-linejoin="round"></path>
<path d="M40.6879 49.0184C45.2887 49.0184 49.0184 45.2887 49.0184 40.6879C49.0184 36.087 45.2887 32.3573 40.6879 32.3573C36.087 32.3573 32.3573 36.087 32.3573 40.6879C32.3573 45.2887 36.087 49.0184 40.6879 49.0184Z" fill="#EF4444"></path>
</svg></svg></g></g><defs><clipPath id="SvgjsClipPath1034"><rect width="1000" height="1000" x="0" y="0" rx="350" ry="350"></rect></clipPath></defs></svg></g></svg>